# ASF file generated by Tido's ASF writer for MATLAB.
:version 1.10
:name VICON
:units
  mass 1
  length 0.45000000000000001
  angle deg
:documentation
   .ast/.asf automatically generated from VICON data using
   VICON BodyBuilder and BodyLanguage model FoxedUp or BRILLIANT.MOD
:root
  axis xyz
  order tx ty tz rx ry rz 
  position 0 0 0
  orientation 0 0 0
:bonedata
  begin
    id 1
    name lhipjoint
    direction 0.44017800000000001 -0.82263900000000001 0.359871
    length 1.1390085000000001
    axis 0 0 0 xyz
  end
  begin
    id 2
    name lfemur
    direction 0.34201999999999999 -0.939693 0
    length 3.5465939999999998
    axis 0 0 20 xyz
    dof rx ry rz 
    limits (-160 20)
           (-70 70)
           (-60 70)
  end
  begin
    id 3
    name ltibia
    direction 0.34201999999999999 -0.939693 0
    length 3.7970234999999999
    axis 0 0 20 xyz
    dof rx 
    limits (-10 170)
  end
  begin
    id 4
    name lfoot
    direction 0.088635099999999994 -0.24352299999999999 0.96583699999999995
    length 1.1853629999999999
    axis -90 7.62852e-016 20 xyz
    dof rx rz 
    limits (-45 90)
           (-70 20)
  end
  begin
    id 5
    name ltoes
    direction 1.53703e-011 -4.2171700000000001e-011 1
    length 0.59142150000000004
    axis -90 7.62852e-016 20 xyz
    dof rx 
    limits (-90 20)
  end
  begin
    id 6
    name rhipjoint
    direction -0.399779 -0.83977299999999999 0.367367
    length 1.115766
    axis 0 0 0 xyz
  end
  begin
    id 7
    name rfemur
    direction -0.34201999999999999 -0.939693 0
    length 3.4866269999999999
    axis 0 0 -20 xyz
    dof rx ry rz 
    limits (-160 20)
           (-70 70)
           (-70 60)
  end
  begin
    id 8
    name rtibia
    direction -0.34201999999999999 -0.939693 0
    length 3.9349440000000002
    axis 0 0 -20 xyz
    dof rx 
    limits (-10 170)
  end
  begin
    id 9
    name rfoot
    direction -0.108514 -0.29813899999999999 0.94833400000000001
    length 1.1974590000000001
    axis -90 -7.62852e-016 -20 xyz
    dof rx rz 
    limits (-45 90)
           (-20 70)
  end
  begin
    id 10
    name rtoes
    direction -1.5339199999999999e-011 -4.2207699999999999e-011 1
    length 0.59392350000000005
    axis -90 -7.62852e-016 -20 xyz
    dof rx 
    limits (-90 20)
  end
  begin
    id 11
    name lowerback
    direction 0.011325699999999999 0.99986600000000003 0.0118602
    length 1.164123
    axis 0 0 0 xyz
    dof rx ry rz 
    limits (-20 45)
           (-30 30)
           (-30 30)
  end
  begin
    id 12
    name upperback
    direction -0.016474699999999998 0.99519299999999999 -0.096537499999999998
    length 1.135656
    axis 0 0 0 xyz
    dof rx ry rz 
    limits (-20 45)
           (-30 30)
           (-30 30)
  end
  begin
    id 13
    name thorax
    direction -0.019430099999999999 0.99433000000000005 -0.10455200000000001
    length 1.1524455
    axis 0 0 0 xyz
    dof rx ry rz 
    limits (-20 45)
           (-30 30)
           (-30 30)
  end
  begin
    id 14
    name lowerneck
    direction 0.014854300000000001 0.995587 -0.092657000000000003
    length 0.772119
    axis 0 0 0 xyz
    dof rx ry rz 
    limits (-20 45)
           (-30 30)
           (-30 30)
  end
  begin
    id 15
    name upperneck
    direction -0.0135467 0.99365599999999998 -0.111639
    length 0.76021650000000007
    axis 0 0 0 xyz
    dof rx ry rz 
    limits (-20 45)
           (-30 30)
           (-30 30)
  end
  begin
    id 16
    name head
    direction -0.0061534900000000002 0.99954699999999996 -0.029447999999999998
    length 0.78578999999999999
    axis 0 0 0 xyz
    dof rx ry rz 
    limits (-20 45)
           (-30 30)
           (-30 30)
  end
  begin
    id 17
    name lclavicle
    direction 0.98826700000000001 0.14988499999999999 0.029371299999999999
    length 2.012499
    axis 0 0 0 xyz
    dof ry rz 
    limits (-20 10)
           (0 20)
  end
  begin
    id 18
    name lhumerus
    direction 1 -4.4898600000000001e-011 -1.1483300000000001e-027
    length 2.4171659999999999
    axis 180 -30 -90 xyz
    dof rx ry rz 
    limits (-60 90)
           (-90 90)
           (-90 90)
  end
  begin
    id 19
    name lradius
    direction 0.99999800000000005 0.00170963 -0.00098705499999999992
    length 1.773954
    axis 180 -30 -90 xyz
    dof rx 
    limits (-10 170)
  end
  begin
    id 20
    name lwrist
    direction 0.99999800000000005 7.53149e-005 -0.00194706
    length 0.88697700000000002
    axis 4.6505600000000004e-015 90 90 xyz
    dof ry 
    limits (-180 0)
  end
  begin
    id 21
    name lhand
    direction 1 -4.48973e-011 -1.3174599999999999e-026
    length 0.5306265
    axis 8.4064999999999996e-015 90 90 xyz
    dof rx rz 
    limits (-90 90)
           (-45 45)
  end
  begin
    id 22
    name lfingers
    direction 1 -4.49107e-011 -2.6349199999999999e-026
    length 0.42780555000000003
    axis 1.6812999999999999e-014 90 90 xyz
    dof rx 
    limits (0 90)
  end
  begin
    id 23
    name lthumb
    direction 0.70710700000000004 -6.3504800000000005e-011 0.70710700000000004
    length 0.6142455
    axis -90 45 2.8529899999999998e-015 xyz
    dof rx rz 
    limits (-45 45)
           (-45 45)
  end
  begin
    id 24
    name rclavicle
    direction -0.996699 0.064289499999999999 -0.049572499999999999
    length 2.0817494999999999
    axis 0 0 0 xyz
    dof ry rz 
    limits (-10 20)
           (-20 0)
  end
  begin
    id 25
    name rhumerus
    direction -1 -4.4891899999999998e-011 -2.4105900000000001e-027
    length 2.474145
    axis 180 30 90 xyz
    dof rx ry rz 
    limits (-90 60)
           (-90 90)
           (-90 90)
  end
  begin
    id 26
    name rradius
    direction -0.99999899999999997 0.0011810099999999999 -0.00068185800000000003
    length 1.5677145000000001
    axis 180 30 90 xyz
    dof rx 
    limits (-10 170)
  end
  begin
    id 27
    name rwrist
    direction -0.99999899999999997 0.000321823 -0.00132288
    length 0.78385499999999997
    axis 4.6505600000000004e-015 -90 -90 xyz
    dof ry 
    limits (-180 0)
  end
  begin
    id 28
    name rhand
    direction -1 -4.4902199999999998e-011 -1.3174599999999999e-026
    length 0.60719400000000001
    axis 8.4064999999999996e-015 -90 -90 xyz
    dof rx rz 
    limits (-90 90)
           (-45 45)
  end
  begin
    id 29
    name rfingers
    direction -1 -4.4917800000000002e-011 -2.6349199999999999e-026
    length 0.48953249999999998
    axis 1.6812999999999999e-014 -90 -90 xyz
    dof rx 
    limits (0 90)
  end
  begin
    id 30
    name rthumb
    direction -0.70710700000000004 -6.3471300000000002e-011 0.70710700000000004
    length 0.70287750000000004
    axis -90 -45 -2.8529899999999998e-015 xyz
    dof rx rz 
    limits (-45 45)
           (-45 45)
  end
:hierarchy
begin
  root lhipjoint rhipjoint lowerback 
  lhipjoint lfemur 
  lfemur ltibia 
  ltibia lfoot 
  lfoot ltoes 
  rhipjoint rfemur 
  rfemur rtibia 
  rtibia rfoot 
  rfoot rtoes 
  lowerback upperback 
  upperback thorax 
  thorax lowerneck lclavicle rclavicle 
  lowerneck upperneck 
  upperneck head 
  lclavicle lhumerus 
  lhumerus lradius 
  lradius lwrist 
  lwrist lhand lthumb 
  lhand lfingers 
  rclavicle rhumerus 
  rhumerus rradius 
  rradius rwrist 
  rwrist rhand rthumb 
  rhand rfingers 
end

# AMC file generated by Tido's AMC writer for MATLAB on 27-Nov-2005 at 18:24:20
# Corresponding ASF file: S:\data_MoCap\MoCaDaDB\HDM\Bonn_ASF_AMC_Use IK_on\björn\bjorn.asf
# Number of frames: 542
# Sampling rate: 120
:fully-specified
:degrees
373
root 10.89819 8.5084199999999992 -8.3605499999999999 0.064705399999999996 31.744399999999999 364.57499999999999 
lfemur 0.78942999999999997 8.0562100000000001 -19.059200000000001 
ltibia 29.427199999999999 
lfoot -18.937000000000001 -10.061500000000001 
ltoes -14.6145 
rfemur -29.7697 -10.046900000000001 16.8186 
rtibia 48.820099999999996 
rfoot -9.9880200000000006 19.200199999999999 
rtoes -7.5677700000000003 
lowerback -1.32294 -0.29784500000000003 -4.1160899999999998 
upperback 10.839499999999999 0.34886699999999998 -2.6595499999999999 
thorax 12.441599999999999 -0.0091471799999999995 -0.540408 
lowerneck 1.5866100000000001 -3.8477299999999999 -1.0330999999999999 
upperneck 16.103899999999999 -6.1842600000000001 8.6411099999999994 
head 4.8597099999999998 -2.5701700000000001 2.62073 
lclavicle 1.0297e-013 -3.5383699999999999e-014 
lhumerus -2.7427299999999999 2.1369500000000001 68.237799999999993 
lradius 43.345399999999998 
lwrist -7.8592500000000003 
lhand -26.748100000000001 -9.6348800000000008 
lfingers 7.1250200000000001 
lthumb -0.176838 20.344799999999999 
rclavicle 1.0297e-013 -3.5383699999999999e-014 
rhumerus -52.7468 -43.177999999999997 -53.672800000000002 
rradius 12.615399999999999 
rwrist 35.573500000000003 
rhand -9.4150399999999994 9.7059200000000008 
rfingers 7.1250200000000001 
rthumb 16.546900000000001 -19.608599999999999 
374
root 10.93905 8.5079700000000003 -8.3064599999999995 0.16526099999999999 31.593499999999999 364.69600000000003 
lfemur 1.71262 8.5370000000000008 -19.037500000000001 
ltibia 28.593399999999999 
lfoot -18.8645 -10.489599999999999 
ltoes -14.1853 
rfemur -30.136600000000001 -10.2018 16.9329 
rtibia 46.858699999999999 
rfoot -10.438700000000001 18.568899999999999 
rtoes -6.6830600000000002 
lowerback -1.4561500000000001 -0.36128300000000002 -4.1462599999999998 
upperback 10.8432 0.270897 -2.6461600000000001 
thorax 12.530799999999999 -0.052353299999999998 -0.52010500000000004 
lowerneck 1.4936499999999999 -3.8008899999999999 -0.98726999999999998 
upperneck 16.2133 -6.1217300000000003 8.5531699999999997 
head 4.9021600000000003 -2.5361099999999999 2.5863999999999998 
lclavicle 6.9375800000000002e-014 -1.9878500000000001e-015 
lhumerus -2.7126899999999998 1.9718 68.158600000000007 
lradius 44.644100000000002 
lwrist -7.4966100000000004 
lhand -26.944700000000001 -9.6864000000000008 
lfingers 7.1250200000000001 
lthumb -0.36669099999999999 20.292999999999999 
rclavicle 6.9375800000000002e-014 -1.9878500000000001e-015 
rhumerus -52.681800000000003 -42.518000000000001 -53.9208 
rradius 12.7349 
rwrist 34.900399999999998 
rhand -9.7336600000000004 9.7616899999999998 
rfingers 7.1250200000000001 
rthumb 16.240100000000002 -19.578099999999999 
375
root 10.979460000000001 8.5075199999999995 -8.2516499999999997 0.26676100000000003 31.458100000000002 364.83999999999997 
lfemur 2.6630500000000001 9.04481 -19.013100000000001 
ltibia 27.7273 
lfoot -18.7029 -10.9564 
ltoes -13.8005 
rfemur -30.486599999999999 -10.3857 17.033300000000001 
rtibia 44.954999999999998 
rfoot -11.0548 17.916699999999999 
rtoes -7.2766099999999998 
lowerback -1.5668899999999999 -0.42343900000000001 -4.2092900000000002 
upperback 10.8406 0.19484000000000001 -2.62487 
thorax 12.5991 -0.098223299999999999 -0.47261599999999998 
lowerneck 1.3706199999999999 -3.7629999999999999 -0.93033999999999994 
upperneck 16.3553 -6.0681900000000004 8.4191299999999991 
head 4.9588400000000004 -2.5065200000000001 2.5348600000000001 
lclavicle 1.4968500000000001e-013 -3.6178799999999999e-014 
lhumerus -2.62209 1.7983499999999999 68.162300000000002 
lradius 45.783000000000001 
lwrist -7.3181799999999999 
lhand -27.177399999999999 -9.5523299999999995 
lfingers 7.1250200000000001 
lthumb -0.59142399999999995 20.426600000000001 
rclavicle 1.4968500000000001e-013 -3.6178799999999999e-014 
rhumerus -53.210999999999999 -42.737099999999998 -53.175800000000002 
rradius 12.774800000000001 
rwrist 35.239899999999999 
rhand -10.0212 9.7838100000000008 
rfingers 7.1250200000000001 
rthumb 15.9633 -19.578399999999998 
376
root 11.019870000000001 8.5059900000000006 -8.1954449999999994 0.396119 31.311299999999999 365.01299999999998 
lfemur 3.62426 9.4484300000000001 -19.033999999999999 
ltibia 26.833400000000001 
lfoot -18.530200000000001 -11.3505 
ltoes -13.300700000000001 
rfemur -30.865200000000002 -10.5915 17.119199999999999 
rtibia 43.152700000000003 
rfoot -11.724 17.317299999999999 
rtoes -8.8160000000000007 
lowerback -1.7346999999999999 -0.48289900000000002 -4.2784199999999997 
upperback 10.8384 0.12973100000000001 -2.6307 
thorax 12.7041 -0.13797200000000001 -0.450932 
lowerneck 1.2666599999999999 -3.7163300000000001 -0.85922399999999999 
upperneck 16.488700000000001 -6.0069900000000001 8.32193 
head 5.0100300000000004 -2.4711699999999999 2.4932699999999999 
lclavicle 4.7112e-014 -1.8685799999999999e-014 
lhumerus -2.5812200000000001 1.5032700000000001 68.046800000000005 
lradius 46.927500000000002 
lwrist -7.0560999999999998 
lhand -27.2027 -9.2498699999999996 
lfingers 7.1250200000000001 
lthumb -0.61582300000000001 20.728999999999999 
rclavicle 4.7112e-014 -1.8685799999999999e-014 
rhumerus -52.999699999999997 -41.940899999999999 -53.7562 
rradius 13.0509 
rwrist 34.0839 
rhand -10.1175 9.7818500000000004 
rfingers 7.1250200000000001 
rthumb 15.8705 -19.587800000000001 
377
root 11.059875 8.5030200000000011 -8.1386099999999999 0.52612099999999995 31.174499999999998 365.209 
lfemur 4.6050599999999999 9.7979699999999994 -19.072700000000001 
ltibia 25.930499999999999 
lfoot -18.3369 -11.736499999999999 
ltoes -12.846299999999999 
rfemur -31.264700000000001 -10.911 17.211500000000001 
rtibia 41.4773 
rfoot -12.3337 16.840299999999999 
rtoes -9.8187200000000008 
lowerback -1.90191 -0.53711799999999998 -4.3961100000000002 
upperback 10.841699999999999 0.074884900000000004 -2.6201099999999999 
thorax 12.8161 -0.17891499999999999 -0.38357999999999998 
lowerneck 1.1645700000000001 -3.6806999999999999 -0.790852 
upperneck 16.6038 -5.9548899999999998 8.1937099999999994 
head 5.05511 -2.44292 2.4420999999999999 
lclavicle -7.5538200000000001e-015 -3.2600700000000001e-014 
lhumerus -2.52047 1.3215300000000001 68.069800000000001 
lradius 47.975499999999997 
lwrist -6.9802299999999997 
lhand -27.1692 -8.9844500000000007 
lfingers 7.1250200000000001 
lthumb -0.58348299999999997 20.994499999999999 
rclavicle -7.5538200000000001e-015 -3.2600700000000001e-014 
rhumerus -53.319099999999999 -41.788800000000002 -53.563699999999997 
rradius 13.3193 
rwrist 33.728999999999999 
rhand -10.060499999999999 9.9828299999999999 
rfingers 7.1250200000000001 
rthumb 15.9254 -19.382400000000001 
378
root 11.099745 8.4992850000000004 -8.0819550000000007 0.66840699999999997 31.036799999999999 365.43000000000001 
lfemur 5.5893300000000004 10.111499999999999 -19.147200000000002 
ltibia 25.010300000000001 
lfoot -18.152200000000001 -12.007 
ltoes -12.7539 
rfemur -31.734000000000002 -11.298500000000001 17.290299999999998 
rtibia 39.957500000000003 
rfoot -12.7219 16.576699999999999 
rtoes -10.305300000000001 
lowerback -2.0765099999999999 -0.59074700000000002 -4.5077400000000001 
upperback 10.860300000000001 0.0251036 -2.6331099999999998 
thorax 12.9512 -0.21537999999999999 -0.34554699999999999 
lowerneck 0.99767099999999997 -3.6480000000000001 -0.67607899999999999 
upperneck 16.752099999999999 -5.9087899999999998 8.0398599999999991 
head 5.1200900000000003 -2.4138000000000002 2.3736299999999999 
lclavicle -2.7829899999999999e-014 2.9817699999999997e-014 
lhumerus -2.38653 1.0089699999999999 67.984899999999996 
lradius 48.9786 
lwrist -6.5873299999999997 
lhand -27.085599999999999 -8.8119099999999992 
lfingers 7.1250200000000001 
lthumb -0.50277000000000005 21.167200000000001 
rclavicle -2.7829899999999999e-014 2.9817699999999997e-014 
rhumerus -53.284500000000001 -41.457000000000001 -53.760899999999999 
rradius 13.5314 
rwrist 32.899700000000003 
rhand -9.9580000000000002 10.122999999999999 
rfingers 7.1250200000000001 
rthumb 16.024100000000001 -19.234300000000001 
